<svg width="149" height="35" viewBox="0 0 149 35" fill="none" xmlns="http://www.w3.org/2000/svg">
<path d="M24.576 0.736023V6.68802L10.128 27.712H24.816L24.048 34H0.864014V28.096L15.6 6.83202H2.35201V0.736023H24.576Z" fill="#121212"/>
<path d="M48.7789 26.608C48.7789 27.568 48.9069 28.272 49.1629 28.72C49.4509 29.168 49.8989 29.504 50.5069 29.728L48.9229 34.672C47.3549 34.544 46.0749 34.208 45.0829 33.664C44.0909 33.088 43.3229 32.192 42.7789 30.976C41.1149 33.536 38.5549 34.816 35.0989 34.816C32.5709 34.816 30.5549 34.08 29.0509 32.608C27.5469 31.136 26.7949 29.216 26.7949 26.848C26.7949 24.064 27.8189 21.936 29.8669 20.464C31.9149 18.992 34.8749 18.256 38.7469 18.256H41.3389V17.152C41.3389 15.648 41.0189 14.624 40.3789 14.08C39.7389 13.504 38.6189 13.216 37.0189 13.216C36.1869 13.216 35.1789 13.344 33.9949 13.6C32.8109 13.824 31.5949 14.144 30.3469 14.56L28.6189 9.56802C30.2189 8.96002 31.8509 8.49602 33.5149 8.17602C35.2109 7.85602 36.7789 7.69602 38.2189 7.69602C41.8669 7.69602 44.5389 8.44802 46.2349 9.95202C47.9309 11.456 48.7789 13.712 48.7789 16.72V26.608ZM37.3069 29.392C39.0349 29.392 40.3789 28.576 41.3389 26.944V22.432H39.4669C37.7389 22.432 36.4429 22.736 35.5789 23.344C34.7469 23.952 34.3309 24.896 34.3309 26.176C34.3309 27.2 34.5869 28 35.0989 28.576C35.6429 29.12 36.3789 29.392 37.3069 29.392Z" fill="#121212"/>
<path d="M70.8038 32.8C69.8758 33.44 68.7878 33.936 67.5398 34.288C66.3238 34.64 65.1078 34.816 63.8918 34.816C58.3238 34.784 55.5398 31.712 55.5398 25.6V13.792H51.9398V8.51202H55.5398V2.99202L63.1238 2.12802V8.51202H68.9798L68.1638 13.792H63.1238V25.504C63.1238 26.688 63.3158 27.536 63.6998 28.048C64.0838 28.56 64.6918 28.816 65.5238 28.816C66.3878 28.816 67.2998 28.544 68.2598 28L70.8038 32.8Z" fill="#121212"/>
<path d="M93.0289 26.608C93.0289 27.568 93.1569 28.272 93.4129 28.72C93.7009 29.168 94.1489 29.504 94.7569 29.728L93.1729 34.672C91.6049 34.544 90.3249 34.208 89.3329 33.664C88.3409 33.088 87.5729 32.192 87.0289 30.976C85.3649 33.536 82.8049 34.816 79.3489 34.816C76.8209 34.816 74.8049 34.08 73.3009 32.608C71.7969 31.136 71.0449 29.216 71.0449 26.848C71.0449 24.064 72.0689 21.936 74.1169 20.464C76.1649 18.992 79.1249 18.256 82.9969 18.256H85.5889V17.152C85.5889 15.648 85.2689 14.624 84.6289 14.08C83.9889 13.504 82.8689 13.216 81.2689 13.216C80.4369 13.216 79.4289 13.344 78.2449 13.6C77.0609 13.824 75.8449 14.144 74.5969 14.56L72.8689 9.56802C74.4689 8.96002 76.1009 8.49602 77.7649 8.17602C79.4609 7.85602 81.0289 7.69602 82.4689 7.69602C86.1169 7.69602 88.7889 8.44802 90.4849 9.95202C92.1809 11.456 93.0289 13.712 93.0289 16.72V26.608ZM81.5569 29.392C83.2849 29.392 84.6289 28.576 85.5889 26.944V22.432H83.7169C81.9889 22.432 80.6929 22.736 79.8289 23.344C78.9969 23.952 78.5809 24.896 78.5809 26.176C78.5809 27.2 78.8369 28 79.3489 28.576C79.8929 29.12 80.6289 29.392 81.5569 29.392Z" fill="#121212"/>
<path d="M113.998 7.69602C116.206 7.69602 117.934 8.36802 119.182 9.71202C120.43 11.056 121.054 12.944 121.054 15.376V34H113.47V16.672C113.47 15.392 113.262 14.512 112.846 14.032C112.462 13.52 111.87 13.264 111.07 13.264C109.534 13.264 108.062 14.368 106.654 16.576V34H99.0698V8.51202H105.694L106.222 11.536C107.31 10.256 108.478 9.29602 109.726 8.65602C111.006 8.01602 112.43 7.69602 113.998 7.69602Z" fill="#121212"/>
<path d="M147.029 26.608C147.029 27.568 147.157 28.272 147.413 28.72C147.701 29.168 148.149 29.504 148.757 29.728L147.173 34.672C145.605 34.544 144.325 34.208 143.333 33.664C142.341 33.088 141.573 32.192 141.029 30.976C139.365 33.536 136.805 34.816 133.349 34.816C130.821 34.816 128.805 34.08 127.301 32.608C125.797 31.136 125.045 29.216 125.045 26.848C125.045 24.064 126.069 21.936 128.117 20.464C130.165 18.992 133.125 18.256 136.997 18.256H139.589V17.152C139.589 15.648 139.269 14.624 138.629 14.08C137.989 13.504 136.869 13.216 135.269 13.216C134.437 13.216 133.429 13.344 132.245 13.6C131.061 13.824 129.845 14.144 128.597 14.56L126.869 9.56802C128.469 8.96002 130.101 8.49602 131.765 8.17602C133.461 7.85602 135.029 7.69602 136.469 7.69602C140.117 7.69602 142.789 8.44802 144.485 9.95202C146.181 11.456 147.029 13.712 147.029 16.72V26.608ZM135.557 29.392C137.285 29.392 138.629 28.576 139.589 26.944V22.432H137.717C135.989 22.432 134.693 22.736 133.829 23.344C132.997 23.952 132.581 24.896 132.581 26.176C132.581 27.2 132.837 28 133.349 28.576C133.893 29.12 134.629 29.392 135.557 29.392Z" fill="#121212"/>
</svg>
