<svg width="22" height="19" viewBox="0 0 22 19" fill="none" xmlns="http://www.w3.org/2000/svg">
<path d="M14.075 16.1044L13.225 18.4084C13.1583 18.5826 13.0417 18.7251 12.875 18.836C12.7083 18.9468 12.525 19.0023 12.325 19.0023C11.9917 19.0023 11.7208 18.8716 11.5125 18.6103C11.3042 18.3491 11.2667 18.0601 11.4 17.7434L15.2 8.19472C15.2833 8.02053 15.4083 7.87802 15.575 7.76717C15.7417 7.65632 15.925 7.6009 16.125 7.6009H16.875C17.075 7.6009 17.2583 7.65632 17.425 7.76717C17.5917 7.87802 17.7167 8.02053 17.8 8.19472L21.6 17.7671C21.7333 18.068 21.7 18.3491 21.5 18.6103C21.3 18.8716 21.0333 19.0023 20.7 19.0023C20.4833 19.0023 20.2958 18.9468 20.1375 18.836C19.9792 18.7251 19.8583 18.5747 19.775 18.3847L18.925 16.1044H14.075ZM8.05 11.3776L3.7 15.4868C3.51667 15.661 3.2875 15.7521 3.0125 15.76C2.7375 15.7679 2.5 15.6769 2.3 15.4868C2.11667 15.3126 2.025 15.091 2.025 14.8218C2.025 14.5526 2.11667 14.3309 2.3 14.1567L6.65 10.0237C6.06667 9.46946 5.5375 8.83605 5.0625 8.12346C4.5875 7.41088 4.15 6.60328 3.75 5.70068H5.85C6.18333 6.31825 6.51667 6.85665 6.85 7.31587C7.18333 7.77509 7.58333 8.23431 8.05 8.69353C8.6 8.17097 9.17083 7.43859 9.7625 6.4964C10.3542 5.5542 10.8 4.65555 11.1 3.80045H1C0.716667 3.80045 0.479167 3.7094 0.2875 3.52729C0.0958333 3.34519 0 3.11954 0 2.85034C0 2.58114 0.0958333 2.35549 0.2875 2.17338C0.479167 1.99128 0.716667 1.90023 1 1.90023H7V0.950113C7 0.680914 7.09583 0.455262 7.2875 0.273157C7.47917 0.0910525 7.71667 0 8 0C8.28333 0 8.52083 0.0910525 8.7125 0.273157C8.90417 0.455262 9 0.680914 9 0.950113V1.90023H15C15.2833 1.90023 15.5208 1.99128 15.7125 2.17338C15.9042 2.35549 16 2.58114 16 2.85034C16 3.11954 15.9042 3.34519 15.7125 3.52729C15.5208 3.7094 15.2833 3.80045 15 3.80045H13.1C12.75 4.94059 12.225 6.11239 11.525 7.31587C10.825 8.51934 10.1333 9.43779 9.45 10.0712L11.85 12.399L11.1 14.3467L8.05 11.3776ZM14.7 14.4417H18.3L16.5 9.59614L14.7 14.4417Z" fill="#C12E7E"/>
</svg>
